# This file uses centimeters as units for non-parametric coordinates.

v 3.418004 -3.418003 0.231807
v 4.833787 0.000001 0.231807
v 3.418004 3.418005 0.231807
v 0.000000 4.833788 0.231807
v -3.418004 3.418005 0.231807
v -4.833787 0.000001 0.231807
v -3.418004 -3.418003 0.231807
v 0.000000 -4.833787 0.231807
v 4.885949 -4.885948 0.231807
v 6.909775 0.000001 0.231807
v 4.885949 4.885950 0.231807
v 0.000000 6.909775 0.231807
v -4.885949 4.885950 0.231807
v -6.909775 0.000001 0.231807
v -4.885949 -4.885948 0.231807
v 0.000000 -6.909775 0.231807
v 4.885949 -4.885948 -0.231807
v 6.909775 0.000001 -0.231807
v 4.885949 4.885950 -0.231807
v 0.000000 6.909775 -0.231807
v -4.885949 4.885950 -0.231807
v -6.909775 0.000001 -0.231807
v -4.885949 -4.885948 -0.231807
v 0.000000 -6.909775 -0.231807
v 3.418003 -3.418002 -0.231806
v 4.833787 0.000001 -0.231806
v 3.418003 3.418004 -0.231806
v 0.000000 4.833788 -0.231806
v -3.418003 3.418004 -0.231806
v -4.833787 0.000001 -0.231806
v -3.418004 -3.418003 -0.231806
v 0.000000 -4.833786 -0.231806
vt 0.740136 0.754263
vt 0.701074 0.644888
vt 0.747949 0.598013
vt 0.810449 0.754263
vt 0.701074 0.863638
vt 0.747949 0.910513
vt 0.583886 0.910513
vt 0.583886 0.980825
vt 0.474511 0.863638
vt 0.427636 0.910513
vt 0.427636 0.754263
vt 0.365136 0.754263
vt 0.474511 0.644888
vt 0.427636 0.598013
vt 0.583886 0.598013
vt 0.583886 0.527700
vt 0.015625 0.601563
vt 0.015625 0.437500
vt 0.078125 0.437500
vt 0.078125 0.601563
vt 0.015625 0.757813
vt 0.078125 0.757813
vt 0.164063 0.601563
vt 0.164063 0.757813
vt 0.101563 0.757813
vt 0.101563 0.601563
vt 0.164063 0.437500
vt 0.101563 0.437500
vt 0.328125 0.601563
vt 0.328125 0.757813
vt 0.257813 0.757813
vt 0.257813 0.601563
vt 0.328125 0.437500
vt 0.257813 0.437500
vt 0.242188 0.601563
vt 0.242188 0.757813
vt 0.179688 0.757813
vt 0.179688 0.601563
vt 0.242188 0.437500
vt 0.179688 0.437500
vt 0.365136 0.754263
vt 0.427636 0.598013
vt 0.474511 0.644888
vt 0.427636 0.754263
vt 0.427636 0.910513
vt 0.474511 0.863638
vt 0.583887 0.980825
vt 0.583887 0.910513
vt 0.747949 0.910513
vt 0.701074 0.863638
vt 0.810449 0.754263
vt 0.740137 0.754263
vt 0.747949 0.598013
vt 0.701074 0.644888
vt 0.583887 0.527700
vt 0.583887 0.598013
vt 0.257813 0.890625
vt 0.257813 0.773438
vt 0.328125 0.773438
vt 0.328125 0.890625
vt 0.257813 1.000000
vt 0.328125 1.000000
vt 0.179688 0.890625
vt 0.179688 0.773438
vt 0.242188 0.773438
vt 0.242188 0.890625
vt 0.179688 1.000000
vt 0.242188 1.000000
vt 0.078125 0.890625
vt 0.078125 1.000000
vt 0.015625 1.000000
vt 0.015625 0.890625
vt 0.078125 0.773438
vt 0.015625 0.773438
vt 0.101563 0.890625
vt 0.101563 0.773438
vt 0.164063 0.773438
vt 0.164063 0.890625
vt 0.101563 1.000000
vt 0.164063 1.000000
vn 0.000000 -0.000000 1.000000
vn 0.000000 -0.000000 1.000000
vn 0.000000 -0.000000 1.000000
vn 0.000000 -0.000000 1.000000
vn 0.000000 0.000000 1.000000
vn 0.000000 0.000000 1.000000
vn 0.000000 0.000000 1.000000
vn 0.000000 0.000000 1.000000
vn 0.000000 0.000000 1.000000
vn 0.000000 0.000000 1.000000
vn 0.000000 0.000000 1.000000
vn 0.000000 0.000000 1.000000
vn 0.000000 0.000000 1.000000
vn 0.000000 0.000000 1.000000
vn 0.000000 0.000000 1.000000
vn 0.000000 0.000000 1.000000
vn 0.000000 0.000000 1.000000
vn 0.000000 0.000000 1.000000
vn 0.000000 0.000000 1.000000
vn 0.000000 0.000000 1.000000
vn 0.000000 0.000000 1.000000
vn 0.000000 0.000000 1.000000
vn 0.000000 0.000000 1.000000
vn 0.000000 0.000000 1.000000
vn 0.000000 0.000000 1.000000
vn 0.000000 0.000000 1.000000
vn 0.000000 0.000000 1.000000
vn 0.000000 0.000000 1.000000
vn 0.000000 -0.000000 1.000000
vn 0.000000 -0.000000 1.000000
vn 0.000000 -0.000000 1.000000
vn 0.000000 -0.000000 1.000000
vn 0.923880 -0.382683 0.000000
vn 0.923880 -0.382683 0.000000
vn 0.923880 -0.382683 0.000000
vn 0.923880 -0.382683 0.000000
vn 0.923880 0.382683 0.000000
vn 0.923880 0.382683 0.000000
vn 0.923880 0.382683 0.000000
vn 0.923880 0.382683 0.000000
vn 0.382683 0.923880 0.000000
vn 0.382683 0.923880 0.000000
vn 0.382683 0.923880 0.000000
vn 0.382683 0.923880 0.000000
vn -0.382683 0.923880 0.000000
vn -0.382683 0.923880 0.000000
vn -0.382683 0.923880 0.000000
vn -0.382683 0.923880 0.000000
vn -0.923880 0.382683 0.000000
vn -0.923880 0.382683 0.000000
vn -0.923880 0.382683 0.000000
vn -0.923880 0.382683 0.000000
vn -0.923880 -0.382683 0.000000
vn -0.923880 -0.382683 0.000000
vn -0.923880 -0.382683 0.000000
vn -0.923880 -0.382683 0.000000
vn -0.382683 -0.923880 0.000000
vn -0.382683 -0.923880 0.000000
vn -0.382683 -0.923880 0.000000
vn -0.382683 -0.923880 0.000000
vn 0.382684 -0.923879 0.000000
vn 0.382684 -0.923879 0.000000
vn 0.382684 -0.923879 0.000000
vn 0.382684 -0.923879 0.000000
vn -0.000000 0.000000 -1.000000
vn -0.000000 0.000000 -1.000000
vn -0.000000 0.000000 -1.000000
vn -0.000000 0.000000 -1.000000
vn 0.000000 0.000000 -1.000000
vn 0.000000 0.000000 -1.000000
vn 0.000000 0.000000 -1.000000
vn 0.000000 0.000000 -1.000000
vn 0.000000 0.000000 -1.000000
vn 0.000000 0.000000 -1.000000
vn 0.000000 0.000000 -1.000000
vn 0.000000 0.000000 -1.000000
vn 0.000000 0.000000 -1.000000
vn 0.000000 0.000000 -1.000000
vn 0.000000 0.000000 -1.000000
vn 0.000000 0.000000 -1.000000
vn 0.000000 0.000000 -1.000000
vn 0.000000 0.000000 -1.000000
vn 0.000000 0.000000 -1.000000
vn 0.000000 0.000000 -1.000000
vn 0.000000 0.000000 -1.000000
vn 0.000000 0.000000 -1.000000
vn 0.000000 0.000000 -1.000000
vn 0.000000 0.000000 -1.000000
vn 0.000000 0.000000 -1.000000
vn 0.000000 0.000000 -1.000000
vn 0.000000 0.000000 -1.000000
vn 0.000000 0.000000 -1.000000
vn -0.000000 0.000000 -1.000000
vn -0.000000 0.000000 -1.000000
vn -0.000000 0.000000 -1.000000
vn -0.000000 0.000000 -1.000000
vn -0.923880 0.382683 0.000001
vn -0.923880 0.382683 0.000001
vn -0.923880 0.382683 0.000001
vn -0.923880 0.382683 0.000001
vn -0.923880 -0.382683 0.000001
vn -0.923880 -0.382683 0.000001
vn -0.923880 -0.382683 0.000001
vn -0.923880 -0.382683 0.000001
vn -0.382683 -0.923880 0.000002
vn -0.382683 -0.923880 0.000002
vn -0.382683 -0.923880 0.000002
vn -0.382683 -0.923880 0.000002
vn 0.382683 -0.923880 0.000002
vn 0.382683 -0.923880 0.000002
vn 0.382683 -0.923880 0.000002
vn 0.382683 -0.923880 0.000002
vn 0.923879 -0.382684 0.000001
vn 0.923879 -0.382684 0.000001
vn 0.923880 -0.382683 0.000001
vn 0.923880 -0.382683 0.000001
vn 0.923880 0.382683 0.000001
vn 0.923880 0.382683 0.000001
vn 0.923880 0.382683 0.000001
vn 0.923880 0.382683 0.000001
vn 0.382683 0.923880 0.000001
vn 0.382683 0.923880 0.000001
vn 0.382683 0.923880 0.000001
vn 0.382683 0.923880 0.000001
vn -0.382684 0.923879 -0.000000
vn -0.382684 0.923879 -0.000000
vn -0.382684 0.923879 -0.000000
vn -0.382684 0.923879 -0.000000
f 2/1/1 1/2/2 9/3/3 10/4/4
f 3/5/5 2/1/6 10/4/7 11/6/8
f 4/7/9 3/5/10 11/6/11 12/8/12
f 5/9/13 4/7/14 12/8/15 13/10/16
f 6/11/17 5/9/18 13/10/19 14/12/20
f 7/13/21 6/11/22 14/12/23 15/14/24
f 8/15/25 7/13/26 15/14/27 16/16/28
f 1/2/29 8/15/30 16/16/31 9/3/32
f 10/17/33 9/18/34 17/19/35 18/20/36
f 11/21/37 10/17/38 18/20/39 19/22/40
f 12/23/41 11/24/42 19/25/43 20/26/44
f 13/27/45 12/23/46 20/26/47 21/28/48
f 14/29/49 13/30/50 21/31/51 22/32/52
f 15/33/53 14/29/54 22/32/55 23/34/56
f 16/35/57 15/36/58 23/37/59 24/38/60
f 9/39/61 16/35/62 24/38/63 17/40/64
f 18/41/65 17/42/66 25/43/67 26/44/68
f 19/45/69 18/41/70 26/44/71 27/46/72
f 20/47/73 19/45/74 27/46/75 28/48/76
f 21/49/77 20/47/78 28/48/79 29/50/80
f 22/51/81 21/49/82 29/50/83 30/52/84
f 23/53/85 22/51/86 30/52/87 31/54/88
f 24/55/89 23/53/90 31/54/91 32/56/92
f 17/42/93 24/55/94 32/56/95 25/43/96
f 26/57/97 25/58/98 1/59/99 2/60/100
f 27/61/101 26/57/102 2/60/103 3/62/104
f 28/63/105 27/64/106 3/65/107 4/66/108
f 29/67/109 28/63/110 4/66/111 5/68/112
f 30/69/113 29/70/114 5/71/115 6/72/116
f 31/73/117 30/69/118 6/72/119 7/74/120
f 32/75/121 31/76/122 7/77/123 8/78/124
f 25/79/125 32/75/126 8/78/127 1/80/128
